<?xml version="1.0" encoding="UTF-8"?> <svg xmlns="http://www.w3.org/2000/svg" width="61" height="116" viewBox="0 0 61 116" fill="none"><path fill-rule="evenodd" clip-rule="evenodd" d="M27 70L27 33L34 33L34 70L27 70Z" fill="#fff"></path><path fill-rule="evenodd" clip-rule="evenodd" d="M30.5 36.2046L7.62961 72.786L20.6799 98.3103H40.3201L53.3704 72.786L30.5 36.2046ZM34.7396 29.7813C32.7812 26.6487 28.2188 26.6487 26.2604 29.7813L1.09314 70.0365C0.161151 71.5272 0.0805669 73.3979 0.880914 74.9632L15.0043 102.586C15.8591 104.258 17.5785 105.31 19.4562 105.31H41.5438C43.4215 105.31 45.1409 104.258 45.9957 102.586L60.1191 74.9633C60.9194 73.3979 60.8388 71.5272 59.9069 70.0365L34.7396 29.7813Z" fill="#fff"></path><path d="M37 74.5C37 78.0899 34.0899 81 30.5 81C26.9101 81 24 78.0899 24 74.5C24 70.9101 26.9101 68 30.5 68C34.0899 68 37 70.9101 37 74.5Z" fill="#B3BCCA"></path><path fill-rule="evenodd" clip-rule="evenodd" d="M40 74.5C40 79.7467 35.7467 84 30.5 84C25.2533 84 21 79.7467 21 74.5C21 69.2533 25.2533 65 30.5 65C35.7467 65 40 69.2533 40 74.5ZM30.5 81C34.0899 81 37 78.0899 37 74.5C37 70.9101 34.0899 68 30.5 68C26.9101 68 24 70.9101 24 74.5C24 78.0899 26.9101 81 30.5 81Z" fill="#ECF3FD"></path><path fill-rule="evenodd" clip-rule="evenodd" d="M15 112.5C15 110.567 16.567 109 18.5 109H42.5C44.433 109 46 110.567 46 112.5C46 114.433 44.433 116 42.5 116H18.5C16.567 116 15 114.433 15 112.5Z" fill="#fff"></path><path d="M23 3C23 1.34315 24.3431 0 26 0H34C35.6569 0 37 1.34315 37 3V11C37 12.6569 35.6569 14 34 14H26C24.3431 14 23 12.6569 23 11V3Z" fill="#fff"></path></svg> 