<?xml version="1.0" encoding="UTF-8"?> <svg xmlns="http://www.w3.org/2000/svg" width="116" height="70" viewBox="0 0 116 70" fill="none"><path fill-rule="evenodd" clip-rule="evenodd" d="M63.9301 70C63.1501 54.9572 50.7058 43 35.4689 43C20.2319 43 7.7877 54.9572 7.00768 70H0C0.786046 51.0896 16.3653 36 35.4689 36C54.5725 36 70.1517 51.0896 70.9378 70H63.9301Z" fill="#fff"></path><path fill-rule="evenodd" clip-rule="evenodd" d="M35.4689 36C43.477 36 49.9689 29.5081 49.9689 21.5C49.9689 13.4919 43.477 7 35.4689 7C27.4607 7 20.9689 13.4919 20.9689 21.5C20.9689 29.5081 27.4607 36 35.4689 36ZM35.4689 43C47.343 43 56.9689 33.3741 56.9689 21.5C56.9689 9.62588 47.343 0 35.4689 0C23.5948 0 13.9689 9.62588 13.9689 21.5C13.9689 33.3741 23.5948 43 35.4689 43Z" fill="#fff"></path><path fill-rule="evenodd" clip-rule="evenodd" d="M72.094 51.7025C76.0338 48.8815 80.8612 47.2212 86.0764 47.2212C98.9312 47.2212 109.43 57.3089 110.088 69.9999H116C115.337 54.046 102.193 41.3156 86.0764 41.3156C79.7271 41.3156 73.8393 43.2913 68.9942 46.6615C70.2361 48.189 71.2821 49.8821 72.094 51.7025Z" fill="#d7d7d7"></path><path fill-rule="evenodd" clip-rule="evenodd" d="M86.0764 41.3156C92.8325 41.3156 98.3094 35.8387 98.3094 29.0826C98.3094 22.3265 92.8325 16.8496 86.0764 16.8496C79.3203 16.8496 73.8433 22.3265 73.8433 29.0826C73.8433 35.8387 79.3203 41.3156 86.0764 41.3156ZM86.0764 47.2213C96.0941 47.2213 104.215 39.1003 104.215 29.0826C104.215 19.0649 96.0941 10.944 86.0764 10.944C76.0587 10.944 67.9377 19.0649 67.9377 29.0826C67.9377 39.1003 76.0587 47.2213 86.0764 47.2213Z" fill="#d7d7d7"></path></svg> 