<?xml version="1.0" encoding="UTF-8"?> <svg xmlns="http://www.w3.org/2000/svg" width="88" height="109" viewBox="0 0 88 109" fill="none"><path fill-rule="evenodd" clip-rule="evenodd" d="M11.1703 38.4392L44.7196 55.7195L77.2201 38.4385L44.7212 21.8275L11.1703 38.4392ZM5.81437 33.0087C1.377 35.2058 1.32684 41.5167 5.72873 43.7839L41.9646 62.448C43.7237 63.354 45.8152 63.3404 47.5622 62.4114L82.6649 43.7468C86.9738 41.4557 86.9237 35.2638 82.5783 33.0428L47.477 15.1015C45.7759 14.2321 43.7637 14.2192 42.0516 15.0669L5.81437 33.0087Z" fill="#fff"></path><path fill-rule="evenodd" clip-rule="evenodd" d="M3.39426 54.2763C4.32786 52.5075 6.51866 51.8303 8.28754 52.7639L44.7501 72.0086L80.2135 52.783C81.9719 51.8297 84.1701 52.4824 85.1233 54.2408C86.0766 55.9991 85.4239 58.1973 83.6655 59.1506L47.6344 78.684L45.9084 75.5001L45.8948 75.4752M45.9084 75.5001L47.6344 78.684C45.8609 79.6454 43.7244 79.6573 41.9403 78.7157L4.90667 59.1696C3.13778 58.236 2.46065 56.0452 3.39426 54.2763" fill="#fff"></path><path fill-rule="evenodd" clip-rule="evenodd" d="M3.39426 70.7565C4.32786 68.9876 6.51866 68.3104 8.28754 69.244L44.7501 88.4887L80.2135 69.2631C81.9719 68.3098 84.1701 68.9625 85.1233 70.7209C86.0766 72.4792 85.4239 74.6774 83.6655 75.6307L47.6344 95.1641L45.9084 91.9803L45.8948 91.9553M45.9084 91.9803L47.6344 95.1641C45.8609 96.1255 43.7244 96.1374 41.9403 95.1958L4.90667 75.6497C3.13778 74.7161 2.46065 72.5253 3.39426 70.7565" fill="#fff"></path></svg> 