<?xml version="1.0" encoding="UTF-8"?> <svg xmlns="http://www.w3.org/2000/svg" width="112" height="83" viewBox="0 0 112 83" fill="none"><path fill-rule="evenodd" clip-rule="evenodd" d="M36.1956 13.1587C32.7587 11.3435 28.8414 10.3158 24.6842 10.3158C11.0515 10.3158 0 21.3673 0 35C0 48.6327 11.0515 59.6842 24.6842 59.6842C29.0093 59.6842 33.0746 58.5718 36.6096 56.6176C35.1223 54.8094 33.8146 52.8479 32.714 50.7603C30.3043 51.9904 27.5753 52.6842 24.6842 52.6842C14.9175 52.6842 7 44.7667 7 35C7 25.2333 14.9175 17.3158 24.6842 17.3158C27.4552 17.3158 30.0773 17.9531 32.412 19.0891C33.473 16.9799 34.7433 14.994 36.1956 13.1587Z" fill="#B3BCCA"></path><path fill-rule="evenodd" clip-rule="evenodd" d="M63.3684 62.2632C78.6289 62.2632 91 49.8921 91 34.6316C91 19.3711 78.6289 7 63.3684 7C48.1079 7 35.7368 19.3711 35.7368 34.6316C35.7368 49.8921 48.1079 62.2632 63.3684 62.2632ZM63.3684 69.2632C82.4949 69.2632 98 53.7581 98 34.6316C98 15.5051 82.4949 0 63.3684 0C44.2419 0 28.7368 15.5051 28.7368 34.6316C28.7368 53.7581 44.2419 69.2632 63.3684 69.2632Z" fill="#626B78"></path><path d="M72.3687 43.0119L111.217 58.266L95.2283 65.7531L86.4794 82.2898L72.3687 43.0119Z" fill="#ECF3FD"></path><path fill-rule="evenodd" clip-rule="evenodd" d="M95.2283 65.7531L111.217 58.266L72.3687 43.0119L86.4794 82.2898L95.2283 65.7531ZM87.7066 65.0016L90.137 60.4078L93.504 58.8311L84.1737 55.1675L87.7066 65.0016Z" fill="#626B78"></path></svg> 