<svg id="Layer_1" data-name="Layer 1" xmlns="http://www.w3.org/2000/svg" xmlns:xlink="http://www.w3.org/1999/xlink" viewBox="0 0 1652.13 800"><defs><style>.cls-1,.cls-58,.cls-9{fill:none;}.cls-2{clip-path:url(#clip-path);}.cls-3{clip-path:url(#clip-path-2);}.cls-4{isolation:isolate;}.cls-5{clip-path:url(#clip-path-3);}.cls-27,.cls-6{font-size:21.6px;}.cls-27,.cls-29,.cls-6{font-family:ProximaNova-Black, ProximaNova Black;font-weight:800;}.cls-7{letter-spacing:-0.04em;}.cls-8{clip-path:url(#clip-path-5);}.cls-58,.cls-9{stroke:#000;stroke-miterlimit:10;}.cls-9{stroke-width:0.75px;}.cls-10{clip-path:url(#clip-path-6);}.cls-11{clip-path:url(#clip-path-7);}.cls-12{letter-spacing:-0.04em;}.cls-13{letter-spacing:0em;}.cls-14{fill:#d6d5d5;}.cls-15{fill:#2ba7b6;}.cls-16{clip-path:url(#clip-path-9);}.cls-17{clip-path:url(#clip-path-10);}.cls-18{letter-spacing:-0.04em;}.cls-19{clip-path:url(#clip-path-12);}.cls-20{fill:#2fa7b6;}.cls-21,.cls-27{fill:#fff;}.cls-22{clip-path:url(#clip-path-13);}.cls-23{clip-path:url(#clip-path-14);}.cls-24{letter-spacing:-0.12em;}.cls-25{clip-path:url(#clip-path-16);}.cls-26{clip-path:url(#clip-path-17);}.cls-28{clip-path:url(#clip-path-19);}.cls-29{font-size:16px;}.cls-30{letter-spacing:-0.03em;}.cls-31{letter-spacing:-0.01em;}.cls-32{letter-spacing:-0.01em;}.cls-33{letter-spacing:-0.01em;}.cls-34{letter-spacing:0em;}.cls-35{letter-spacing:0em;}.cls-36{letter-spacing:-0.01em;}.cls-37{letter-spacing:0.01em;}.cls-38{letter-spacing:-0.01em;}.cls-39{letter-spacing:0em;}.cls-40{letter-spacing:-0.01em;}.cls-41{letter-spacing:-0.01em;}.cls-42{letter-spacing:0.02em;}.cls-43{letter-spacing:0.01em;}.cls-44{letter-spacing:0em;}.cls-45{letter-spacing:-0.01em;}.cls-46{letter-spacing:-0.01em;}.cls-47{letter-spacing:0em;}.cls-48{letter-spacing:0em;}.cls-49{letter-spacing:0em;}.cls-50{letter-spacing:0em;}.cls-51{letter-spacing:0.01em;}.cls-52{letter-spacing:-0.04em;}.cls-53{letter-spacing:-0.01em;}.cls-54{letter-spacing:0.02em;}.cls-55{letter-spacing:-0.01em;}.cls-56{letter-spacing:0.01em;}.cls-57{letter-spacing:0.02em;}.cls-58{stroke-width:1.35px;}.cls-59{clip-path:url(#clip-path-21);}.cls-60{clip-path:url(#clip-path-22);}.cls-61{clip-path:url(#clip-path-23);}.cls-62{font-size:15.6px;font-family:ProximaNovaA-Light, ProximaNovaA Light;font-weight:300;}.cls-63{letter-spacing:-0.04em;}.cls-64{clip-path:url(#clip-path-24);}.cls-65{letter-spacing:-0.03em;}.cls-66{letter-spacing:-0.05em;}.cls-67{letter-spacing:0em;}.cls-68{clip-path:url(#clip-path-25);}.cls-69{clip-path:url(#clip-path-26);}.cls-70{letter-spacing:-0.08em;}.cls-71{letter-spacing:-0.05em;}.cls-72{clip-path:url(#clip-path-27);}.cls-73{letter-spacing:-0.07em;}.cls-74{clip-path:url(#clip-path-28);}.cls-75{letter-spacing:-0.03em;}.cls-76{letter-spacing:0em;}.cls-77{letter-spacing:-0.01em;}.cls-78{letter-spacing:0em;}.cls-79{letter-spacing:0em;}.cls-80{letter-spacing:-0.04em;}.cls-81{letter-spacing:0em;}.cls-82{letter-spacing:0.01em;}</style><clipPath id="clip-path" transform="translate(37.8 9.68)"><rect class="cls-1" x="3.29" y="-22.58" width="1347.45" height="800"/></clipPath><clipPath id="clip-path-2" transform="translate(37.8 9.68)"><rect class="cls-1" x="8.09" y="128.38" width="327" height="31.08"/></clipPath><clipPath id="clip-path-3" transform="translate(37.8 9.68)"><rect class="cls-1" x="10.49" y="132.64" width="316.41" height="24.57"/></clipPath><clipPath id="clip-path-5" transform="translate(37.8 9.68)"><rect class="cls-1" y="-24.73" width="1371.2" height="800"/></clipPath><clipPath id="clip-path-6" transform="translate(37.8 9.68)"><rect class="cls-1" x="344.65" y="426.49" width="327" height="31.08"/></clipPath><clipPath id="clip-path-7" transform="translate(37.8 9.68)"><rect class="cls-1" x="347.05" y="430.75" width="253.19" height="24.57"/></clipPath><clipPath id="clip-path-9" transform="translate(37.8 9.68)"><rect class="cls-1" x="682.2" y="211.89" width="327" height="31.08"/></clipPath><clipPath id="clip-path-10" transform="translate(37.8 9.68)"><rect class="cls-1" x="684.6" y="216.15" width="124.97" height="24.57"/></clipPath><clipPath id="clip-path-12" transform="translate(37.8 9.68)"><rect class="cls-1" x="8.09" y="-21.62" width="1440" height="800"/></clipPath><clipPath id="clip-path-13" transform="translate(37.8 9.68)"><rect class="cls-1" x="955.44" y="426.49" width="327" height="31.08"/></clipPath><clipPath id="clip-path-14" transform="translate(37.8 9.68)"><rect class="cls-1" x="957.84" y="430.75" width="150.11" height="24.57"/></clipPath><clipPath id="clip-path-16" transform="translate(37.8 9.68)"><rect class="cls-1" y="-30.57" width="1440" height="800"/></clipPath><clipPath id="clip-path-17" transform="translate(37.8 9.68)"><rect class="cls-1" x="1321.99" y="310" width="24.57" height="116.23"/></clipPath><clipPath id="clip-path-19" transform="translate(37.8 9.68)"><rect class="cls-1" x="1407.09" y="281.99" width="24.57" height="180.31"/></clipPath><clipPath id="clip-path-21" transform="translate(37.8 9.68)"><rect class="cls-1" x="832.13" y="473.94" width="526.8" height="130.56"/></clipPath><clipPath id="clip-path-22" transform="translate(37.8 9.68)"><rect class="cls-1" x="834.53" y="477.67" width="516.22" height="122.91"/></clipPath><clipPath id="clip-path-23" transform="translate(37.8 9.68)"><rect class="cls-1" x="834.53" y="477.67" width="516.22" height="16.11"/></clipPath><clipPath id="clip-path-24" transform="translate(37.8 9.68)"><rect class="cls-1" x="834.53" y="499.03" width="486.15" height="16.11"/></clipPath><clipPath id="clip-path-25" transform="translate(37.8 9.68)"><rect class="cls-1" x="834.53" y="520.39" width="185.57" height="16.11"/></clipPath><clipPath id="clip-path-26" transform="translate(37.8 9.68)"><rect class="cls-1" x="834.53" y="541.75" width="501.27" height="16.11"/></clipPath><clipPath id="clip-path-27" transform="translate(37.8 9.68)"><rect class="cls-1" x="834.53" y="563.11" width="499.12" height="16.11"/></clipPath><clipPath id="clip-path-28" transform="translate(37.8 9.68)"><rect class="cls-1" x="834.53" y="584.47" width="342.02" height="16.11"/></clipPath></defs><title>catalina final</title><g class="cls-2"><path d="M111.27,377.42a9,9,0,0,0-2.53-6.45,8.09,8.09,0,0,0-12.07,0,9.49,9.49,0,0,0,0,12.9,8.09,8.09,0,0,0,12.07,0,9,9,0,0,0,2.53-6.45" transform="translate(37.8 9.68)"/></g><g class="cls-3"><g class="cls-4"><g class="cls-5"><g class="cls-4"><g class="cls-5"><text class="cls-6" transform="translate(48.29 160.32)">1. <tspan class="cls-7" x="20.13" y="0">W</tspan><tspan x="37.54" y="0">e assess project &amp; schedule</tspan></text></g></g></g></g></g><g class="cls-8"><line class="cls-9" x1="445.16" y1="384.95" x2="143.33" y2="384.95"/><polyline class="cls-9" points="447.76 376 463.1 384.95 447.76 393.9"/><path d="M479.21,376.21a8.91,8.91,0,0,0-2.57-6.45,8.33,8.33,0,0,0-12.28,0,9.35,9.35,0,0,0,0,12.9,8.33,8.33,0,0,0,12.28,0,8.94,8.94,0,0,0,2.57-6.45" transform="translate(37.8 9.68)"/><text x="37.8" y="9.68"/></g><g class="cls-10"><g class="cls-4"><g class="cls-11"><g class="cls-4"><g class="cls-11"><text class="cls-6" transform="translate(384.85 458.43)">2. <tspan class="cls-12" x="20.13" y="0">W</tspan><tspan class="cls-13" x="37.54" y="0">e gather information</tspan></text></g></g></g></g></g><line class="cls-9" x1="703.16" y1="387.1" x2="545.95" y2="387.1"/><path class="cls-14" d="M773.7,377.42a30.22,30.22,0,1,0-8.85,21.45,29.15,29.15,0,0,0,8.85-21.45" transform="translate(37.8 9.68)"/><path class="cls-15" d="M752.55,377.42a9.22,9.22,0,1,0-2.7,6.45,8.68,8.68,0,0,0,2.7-6.45" transform="translate(37.8 9.68)"/><rect class="cls-1" width="1440" height="800"/><g class="cls-16"><g class="cls-4"><g class="cls-17"><g class="cls-4"><g class="cls-17"><text class="cls-6" transform="translate(722.4 243.83)">3. <tspan class="cls-18" x="20.13" y="0">W</tspan><tspan x="37.56" y="0">e create</tspan></text></g></g></g></g></g><g class="cls-19"><line class="cls-9" x1="1017.46" y1="388.06" x2="829.19" y2="388.06"/><polyline class="cls-9" points="1023.17 378.01 1039.28 386.96 1023.17 395.91"/><path class="cls-20" d="M1070.64,378.48a30.22,30.22,0,1,0-8.85,21.45,29.15,29.15,0,0,0,8.85-21.45" transform="translate(37.8 9.68)"/><path class="cls-21" d="M1049.49,378.48a9.22,9.22,0,1,0-2.7,6.45,8.68,8.68,0,0,0,2.7-6.45" transform="translate(37.8 9.68)"/></g><g class="cls-22"><g class="cls-4"><g class="cls-23"><g class="cls-4"><g class="cls-23"><text class="cls-6" transform="translate(995.64 458.43)">4. <tspan class="cls-24" x="20.13" y="0">Y</tspan><tspan x="29.22" y="0">ou approve</tspan></text></g></g></g></g></g><g class="cls-25"><path class="cls-14" d="M1614.33,372.69q0-66.37-46.8-113.17-47.05-47.05-113.43-47.06t-113.43,47.06q-46.8,46.8-46.79,113.17t46.79,113.42q47.07,46.8,113.43,46.8t113.43-46.8q46.8-47.06,46.8-113.42" transform="translate(37.8 9.68)"/><path class="cls-15" d="M1556.29,372.78q0-42.55-30.24-72.24-29.68-30.24-72.24-30.24t-72.24,30.24q-30.24,29.68-30.24,72.24T1381.57,445q29.68,30.23,72.24,30.24T1526.05,445q30.24-29.68,30.24-72.24" transform="translate(37.8 9.68)"/><g class="cls-4"><g class="cls-26"><g class="cls-4"><g class="cls-26"><text class="cls-27" transform="translate(1377.79 435.91) rotate(-90)">Final touch</text></g></g></g></g><g class="cls-4"><g class="cls-28"><g class="cls-4"><g class="cls-28"><text class="cls-27" transform="translate(1462.89 471.99) rotate(-90)">Final deliverables</text></g></g></g></g></g><text class="cls-29" transform="translate(229.69 494.98)"><tspan class="cls-30">W</tspan><tspan x="13.01" y="0">e meet members of </tspan><tspan class="cls-31" x="146.11" y="0">y</tspan><tspan x="153.48" y="0">our staff and b</tspan><tspan class="cls-32" x="249.88" y="0">r</tspan><tspan x="255.03" y="0">ains</tspan><tspan class="cls-33" x="281.71" y="0">t</tspan><tspan x="286.91" y="0">o</tspan><tspan class="cls-34" x="295.69" y="0">r</tspan><tspan class="cls-35" x="300.99" y="0">m with SME</tspan><tspan class="cls-36" x="379.43" y="0">s</tspan><tspan x="385.59" y="0">. </tspan><tspan class="cls-37" x="392.29" y="0">I</tspan><tspan x="396.28" y="0">f </tspan><tspan class="cls-31" x="404.34" y="0">r</tspan><tspan class="cls-35" x="409.41" y="0">equi</tspan><tspan class="cls-31" x="439" y="0">r</tspan><tspan x="444.07" y="0">e</tspan><tspan class="cls-38" x="452.09" y="0">d</tspan><tspan class="cls-39" x="460.95" y="0">, </tspan><tspan class="cls-38" x="467.65" y="0">y</tspan><tspan x="475.03" y="0">ou </tspan><tspan class="cls-40" x="496.02" y="0">g</tspan><tspan class="cls-39" x="504.87" y="0">i</tspan><tspan class="cls-38" x="508.61" y="0">v</tspan><tspan x="516.15" y="0">e </tspan><tspan x="0" y="22">us a</tspan><tspan class="cls-33" x="26.26" y="22">cc</tspan><tspan x="40.4" y="22">ess </tspan><tspan class="cls-40" x="64.48" y="22">t</tspan><tspan x="69.68" y="22">o a sandb</tspan><tspan class="cls-41" x="134.01" y="22">o</tspan><tspan x="142.57" y="22">x s</tspan><tspan class="cls-33" x="159.71" y="22">y</tspan><tspan x="167.15" y="22">s</tspan><tspan class="cls-40" x="173.49" y="22">t</tspan><tspan x="178.69" y="22">em </tspan><tspan class="cls-40" x="203.44" y="22">t</tspan><tspan x="208.64" y="22">o </tspan><tspan class="cls-33" x="220.81" y="22">t</tspan><tspan x="226.01" y="22">es</tspan><tspan class="cls-32" x="240.36" y="22">t</tspan><tspan class="cls-42" x="245.58" y="22">-</tspan><tspan x="250.78" y="22">d</tspan><tspan class="cls-34" x="259.8" y="22">r</tspan><tspan x="265.1" y="22">i</tspan><tspan class="cls-38" x="268.84" y="22">v</tspan><tspan class="cls-39" x="276.38" y="22">e </tspan><tspan class="cls-38" x="287.79" y="22">y</tspan><tspan x="295.16" y="22">our p</tspan><tspan class="cls-31" x="330.49" y="22">r</tspan><tspan class="cls-35" x="335.56" y="22">odu</tspan><tspan class="cls-43" x="362.19" y="22">c</tspan><tspan class="cls-44" x="369.56" y="22">t</tspan><tspan x="374.81" y="22">, understand h</tspan><tspan class="cls-45" x="471" y="22">o</tspan><tspan x="479.67" y="22">w it </tspan><tspan class="cls-38" x="0" y="44">w</tspan><tspan x="11.62" y="44">o</tspan><tspan class="cls-34" x="20.4" y="44">r</tspan><tspan x="25.7" y="44">ks and take sc</tspan><tspan class="cls-38" x="117.36" y="44">r</tspan><tspan x="122.43" y="44">eenshot</tspan><tspan class="cls-36" x="176.64" y="44">s</tspan><tspan x="182.8" y="44">.</tspan><tspan class="cls-30" x="0" y="66">W</tspan><tspan x="13.01" y="66">e check a</tspan><tspan class="cls-46" x="74.25" y="66">n</tspan><tspan x="82.93" y="66">y </tspan><tspan class="cls-44" x="93.85" y="66">e</tspan><tspan x="101.82" y="66">xisting back</tspan><tspan class="cls-40" x="181.05" y="66">g</tspan><tspan class="cls-31" x="189.9" y="66">r</tspan><tspan x="194.97" y="66">ound m</tspan><tspan class="cls-47" x="247.21" y="66">a</tspan><tspan class="cls-33" x="254.86" y="66">t</tspan><tspan x="260.06" y="66">e</tspan><tspan class="cls-34" x="268.08" y="66">r</tspan><tspan x="273.37" y="66">ials th</tspan><tspan class="cls-48" x="312.51" y="66">a</tspan><tspan x="320.15" y="66">t </tspan><tspan class="cls-31" x="328.84" y="66">w</tspan><tspan class="cls-35" x="340.46" y="66">e can use as a basis </tspan><tspan class="cls-46" x="470.74" y="66">f</tspan><tspan x="475.21" y="66">or the </tspan><tspan x="0" y="88">docume</tspan><tspan class="cls-48" x="55.15" y="88">n</tspan><tspan x="63.97" y="88">t</tspan><tspan class="cls-48" x="69.26" y="88">a</tspan><tspan x="76.91" y="88">tion deli</tspan><tspan class="cls-31" x="131.57" y="88">v</tspan><tspan class="cls-35" x="139.1" y="88">e</tspan><tspan class="cls-49" x="147.12" y="88">r</tspan><tspan x="152.27" y="88">able</tspan><tspan class="cls-36" x="180.88" y="88">s</tspan><tspan x="187.04" y="88">, such as:</tspan><tspan x="0" y="110" xml:space="preserve">    •  </tspan><tspan class="cls-33" x="24.86" y="110">t</tspan><tspan x="30.06" y="110">echnical specific</tspan><tspan class="cls-47" x="138.7" y="110">a</tspan><tspan x="146.35" y="110">tions or other </tspan><tspan class="cls-31" x="239.79" y="110">r</tspan><tspan x="244.86" y="110">equi</tspan><tspan class="cls-38" x="274.44" y="110">r</tspan><tspan class="cls-39" x="279.52" y="110">eme</tspan><tspan class="cls-47" x="308.89" y="110">n</tspan><tspan x="317.71" y="110">t docume</tspan><tspan class="cls-50" x="381.55" y="110">n</tspan><tspan x="390.36" y="110">ts</tspan><tspan x="0" y="132" xml:space="preserve">    •  </tspan><tspan class="cls-44" x="24.86" y="132">e</tspan><tspan x="32.83" y="132">xisting older </tspan><tspan class="cls-31" x="118.8" y="132">v</tspan><tspan class="cls-35" x="126.33" y="132">ersions of the docume</tspan><tspan class="cls-50" x="274.63" y="132">n</tspan><tspan x="283.45" y="132">t</tspan><tspan class="cls-47" x="288.75" y="132">a</tspan><tspan x="296.39" y="132">tion</tspan><tspan x="0" y="154" xml:space="preserve">    •  i</tspan><tspan class="cls-48" x="28.61" y="154">n</tspan><tspan class="cls-40" x="37.42" y="154">t</tspan><tspan x="42.62" y="154">e</tspan><tspan class="cls-34" x="50.64" y="154">r</tspan><tspan x="55.93" y="154">nal d</tspan><tspan class="cls-49" x="88.72" y="154">r</tspan><tspan x="93.87" y="154">a</tspan><tspan class="cls-51" x="101.58" y="154">f</tspan><tspan x="106.43" y="154">ts</tspan><tspan x="0" y="176" xml:space="preserve">    •  demos</tspan></text><text class="cls-29" transform="translate(112.68 198.29)">• <tspan class="cls-52" x="7.9" y="0"> </tspan><tspan class="cls-49" x="10.72" y="0">W</tspan><tspan x="24.18" y="0">h</tspan><tspan class="cls-48" x="33.06" y="0">a</tspan><tspan x="40.7" y="0">t </tspan><tspan class="cls-33" x="49.39" y="0">c</tspan><tspan x="56.46" y="0">o</tspan><tspan class="cls-47" x="65.25" y="0">n</tspan><tspan class="cls-33" x="74.06" y="0">t</tspan><tspan x="79.26" y="0">e</tspan><tspan class="cls-48" x="87.28" y="0">n</tspan><tspan x="96.09" y="0">t should </tspan><tspan class="cls-38" x="153.79" y="0">w</tspan><tspan class="cls-39" x="165.41" y="0">e c</tspan><tspan class="cls-38" x="183.98" y="0">r</tspan><tspan x="189.05" y="0">e</tspan><tspan class="cls-48" x="197.07" y="0">a</tspan><tspan class="cls-40" x="204.72" y="0">t</tspan><tspan x="209.92" y="0">e and w</tspan><tspan class="cls-53" x="262.11" y="0">h</tspan><tspan x="270.78" y="0">y?</tspan><tspan x="0" y="22">• </tspan><tspan class="cls-52" x="7.9" y="22"> </tspan><tspan class="cls-49" x="10.72" y="22">W</tspan><tspan x="24.18" y="22">ho a</tspan><tspan class="cls-38" x="52.94" y="22">r</tspan><tspan class="cls-39" x="58.02" y="22">e the end-users?</tspan><tspan x="0" y="44">• </tspan><tspan class="cls-52" x="7.9" y="44"> </tspan><tspan class="cls-49" x="10.72" y="44">W</tspan><tspan x="24.18" y="44">h</tspan><tspan class="cls-48" x="33.06" y="44">a</tspan><tspan x="40.7" y="44">t a</tspan><tspan class="cls-31" x="57.1" y="44">r</tspan><tspan class="cls-35" x="62.18" y="44">e </tspan><tspan class="cls-31" x="73.58" y="44">y</tspan><tspan x="80.96" y="44">our deadlines?</tspan><tspan x="0" y="66" xml:space="preserve">•  H</tspan><tspan class="cls-45" x="21.73" y="66">o</tspan><tspan x="30.4" y="66">w do </tspan><tspan class="cls-38" x="66.77" y="66">w</tspan><tspan class="cls-39" x="78.38" y="66">e i</tspan><tspan class="cls-47" x="93.53" y="66">n</tspan><tspan class="cls-33" x="102.35" y="66">t</tspan><tspan x="107.55" y="66">e</tspan><tspan class="cls-40" x="115.57" y="66">g</tspan><tspan class="cls-49" x="124.41" y="66">r</tspan><tspan class="cls-48" x="129.57" y="66">a</tspan><tspan class="cls-40" x="137.21" y="66">t</tspan><tspan x="142.41" y="66">e with </tspan><tspan class="cls-31" x="186.91" y="66">y</tspan><tspan x="194.28" y="66">our </tspan><tspan class="cls-38" x="220.51" y="66">r</tspan><tspan class="cls-39" x="225.58" y="66">elease schedule?</tspan><tspan x="0" y="88">• </tspan><tspan class="cls-52" x="7.9" y="88"> </tspan><tspan class="cls-49" x="10.72" y="88">W</tspan><tspan x="24.18" y="88">h</tspan><tspan class="cls-48" x="33.06" y="88">a</tspan><tspan x="40.7" y="88">t </tspan><tspan class="cls-44" x="49.39" y="88">e</tspan><tspan x="57.36" y="88">xisting </tspan><tspan class="cls-54" x="105.1" y="88">k</tspan><tspan x="112.88" y="88">n</tspan><tspan class="cls-45" x="121.76" y="88">o</tspan><tspan x="130.43" y="88">wledge al</tspan><tspan class="cls-38" x="194.86" y="88">r</tspan><tspan x="199.93" y="88">eady </tspan><tspan class="cls-44" x="235.61" y="88">e</tspan><tspan x="243.58" y="88">xists within </tspan><tspan class="cls-31" x="321.8" y="88">y</tspan><tspan x="329.18" y="88">our o</tspan><tspan class="cls-55" x="364.19" y="88">r</tspan><tspan x="369.29" y="88">ganiz</tspan><tspan class="cls-48" x="405.42" y="88">a</tspan><tspan x="413.07" y="88">tion?</tspan><tspan x="0" y="110" xml:space="preserve">•  H</tspan><tspan class="cls-45" x="21.73" y="110">o</tspan><tspan x="30.4" y="110">w </tspan><tspan class="cls-55" x="45.57" y="110">a</tspan><tspan class="cls-48" x="53.15" y="110">v</tspan><tspan x="60.78" y="110">ailable a</tspan><tspan class="cls-31" x="115.73" y="110">r</tspan><tspan class="cls-35" x="120.8" y="110">e the SMEs (Subje</tspan><tspan class="cls-43" x="238.39" y="110">c</tspan><tspan x="245.77" y="110">t </tspan><tspan class="cls-56" x="254.46" y="110">M</tspan><tspan class="cls-47" x="267.42" y="110">a</tspan><tspan x="275.06" y="110">t</tspan><tspan class="cls-33" x="280.36" y="110">t</tspan><tspan x="285.56" y="110">er Expe</tspan><tspan class="cls-57" x="334.6" y="110">r</tspan><tspan x="340.22" y="110">ts)? </tspan><tspan x="0" y="132">• </tspan><tspan class="cls-52" x="7.9" y="132"> </tspan><tspan class="cls-49" x="10.72" y="132">W</tspan><tspan x="24.18" y="132">h</tspan><tspan class="cls-48" x="33.06" y="132">a</tspan><tspan x="40.7" y="132">t other </tspan><tspan class="cls-31" x="88.99" y="132">r</tspan><tspan class="cls-35" x="94.06" y="132">esou</tspan><tspan class="cls-38" x="126.02" y="132">r</tspan><tspan class="cls-40" x="131.09" y="132">c</tspan><tspan x="138.16" y="132">es can </tspan><tspan class="cls-31" x="183.05" y="132">w</tspan><tspan x="194.67" y="132">e a</tspan><tspan class="cls-40" x="213.79" y="132">cc</tspan><tspan x="227.93" y="132">ess? </tspan></text><polyline class="cls-9" points="706.76 379.11 722.87 388.06 706.76 397.01"/><path class="cls-58" d="M498.45,375.89a30.39,30.39,0,1,1-8.9-21.4A29.27,29.27,0,0,1,498.45,375.89Z" transform="translate(37.8 9.68)"/><g class="cls-59"><g class="cls-4"><g class="cls-60"><g class="cls-4"><g class="cls-61"><text class="cls-62" transform="translate(872.33 500.36)"><tspan class="cls-63">W</tspan><tspan x="12.59" y="0">e ﬁnalize the documentation based on your review and distribute the ﬁnal </tspan></text></g></g><g class="cls-4"><g class="cls-64"><text class="cls-62" transform="translate(872.33 521.72)">content<tspan class="cls-65" x="51.01" y="0">. </tspan><tspan x="56.61" y="0">Upon completion, simply download the ﬁnal documents in PD</tspan><tspan class="cls-66" x="460.69" y="0">F</tspan><tspan class="cls-67" x="467.52" y="0">, </tspan></text></g></g><g class="cls-4"><g class="cls-68"><path d="M837.43,533.39l-2.67-10.51h1.44l1.24,5.32c.32,1.31.6,2.62.78,3.63h0c.17-1,.49-2.29.85-3.64l1.41-5.31h1.42l1.27,5.34c.3,1.24.58,2.49.74,3.6h0c.22-1.15.51-2.32.84-3.63l1.39-5.31h1.39l-3,10.51H843.2l-1.33-5.47a33.25,33.25,0,0,1-.68-3.43h0a31.22,31.22,0,0,1-.82,3.43l-1.49,5.47Z" transform="translate(37.8 9.68)"/><path d="M855.09,529.56a3.7,3.7,0,0,1-3.76,4,3.6,3.6,0,0,1-3.62-3.89,3.69,3.69,0,0,1,3.74-4A3.58,3.58,0,0,1,855.09,529.56Zm-6,.08c0,1.65.95,2.9,2.29,2.9s2.29-1.24,2.29-2.93c0-1.28-.64-2.91-2.26-2.91S849.1,528.2,849.1,529.64Z" transform="translate(37.8 9.68)"/><path d="M856.82,528.2c0-.89,0-1.65-.06-2.35H858l0,1.48h.07a2.26,2.26,0,0,1,2.09-1.66,1.6,1.6,0,0,1,.39.05V527a2.12,2.12,0,0,0-.47,0,1.92,1.92,0,0,0-1.84,1.76,4.1,4.1,0,0,0-.06.64v4h-1.36Z" transform="translate(37.8 9.68)"/><path d="M868.44,522.32v9.13c0,.67,0,1.43.06,1.94h-1.23l-.06-1.31h0a2.79,2.79,0,0,1-2.58,1.49c-1.82,0-3.22-1.55-3.22-3.84,0-2.51,1.54-4.06,3.38-4.06a2.54,2.54,0,0,1,2.28,1.16h0v-4.51Zm-1.37,6.6a2.86,2.86,0,0,0-.06-.58,2,2,0,0,0-2-1.59c-1.42,0-2.27,1.25-2.27,2.92s.75,2.79,2.23,2.79a2.07,2.07,0,0,0,2-1.64,2.74,2.74,0,0,0,.06-.59Z" transform="translate(37.8 9.68)"/><path d="M869.83,535.31a23.77,23.77,0,0,0,.94-3.72l1.52-.16a18.38,18.38,0,0,1-1.48,3.79Z" transform="translate(37.8 9.68)"/><path d="M878.66,522.88v4.4h5.08v-4.4h1.38v10.51h-1.38v-4.92h-5.08v4.92H877.3V522.88Z" transform="translate(37.8 9.68)"/><path d="M889.47,524h-3.2v-1.16h7.78V524h-3.21v9.35h-1.37Z" transform="translate(37.8 9.68)"/><path d="M904.08,528.78c-.07-1.47-.17-3.23-.15-4.54h0c-.36,1.23-.79,2.54-1.32,4l-1.86,5.1h-1l-1.7-5c-.5-1.49-.92-2.84-1.22-4.09h0c0,1.31-.11,3.07-.2,4.65l-.28,4.5H895l.73-10.51h1.73L899.2,528c.44,1.29.8,2.45,1.06,3.54h0c.27-1.06.64-2.22,1.11-3.54l1.87-5.09H905l.65,10.51h-1.32Z" transform="translate(37.8 9.68)"/><path d="M907.77,522.88h1.36v9.38h4.49v1.13h-5.85Z" transform="translate(37.8 9.68)"/><path d="M925.22,529.56a3.69,3.69,0,0,1-3.76,4,3.59,3.59,0,0,1-3.61-3.89,3.69,3.69,0,0,1,3.74-4A3.58,3.58,0,0,1,925.22,529.56Zm-6,.08c0,1.65,1,2.9,2.3,2.9s2.29-1.24,2.29-2.93c0-1.28-.64-2.91-2.26-2.91S919.23,528.2,919.23,529.64Z" transform="translate(37.8 9.68)"/><path d="M927,528.2c0-.89,0-1.65-.07-2.35h1.2l0,1.48h.06a2.27,2.27,0,0,1,2.09-1.66,1.48,1.48,0,0,1,.39.05V527a2.09,2.09,0,0,0-.46,0,1.91,1.91,0,0,0-1.84,1.76,3.14,3.14,0,0,0-.07.64v4H927Z" transform="translate(37.8 9.68)"/><path d="M941.17,533.39l-1.34-2.32c-.55-.89-.89-1.46-1.22-2.07h0c-.3.61-.6,1.17-1.14,2.09l-1.26,2.3h-1.56l3.21-5.31-3.09-5.2h1.58l1.38,2.47c.39.68.69,1.21,1,1.78h.05a19.55,19.55,0,0,1,.95-1.78l1.43-2.47h1.56L939.47,528l3.27,5.39Z" transform="translate(37.8 9.68)"/><path d="M953.18,528.78c-.08-1.47-.18-3.23-.16-4.54h0c-.35,1.23-.79,2.54-1.32,4l-1.86,5.1h-1l-1.7-5c-.5-1.49-.92-2.84-1.21-4.09h0c0,1.31-.11,3.07-.21,4.65l-.28,4.5H944l.73-10.51h1.73l1.8,5.09c.43,1.29.79,2.45,1.06,3.54h0c.27-1.06.64-2.22,1.11-3.54l1.87-5.09h1.73l.66,10.51h-1.33Z" transform="translate(37.8 9.68)"/><path d="M956.86,522.88h1.36v9.38h4.49v1.13h-5.85Z" transform="translate(37.8 9.68)"/><path d="M967.62,533.39v-6.5h-1.06v-1h1.06v-.36a3.57,3.57,0,0,1,.88-2.64,2.61,2.61,0,0,1,1.84-.7,3.2,3.2,0,0,1,1.17.22l-.19,1.06a2.08,2.08,0,0,0-.87-.17c-1.17,0-1.47,1-1.47,2.18v.41h1.83v1H969v6.5Z" transform="translate(37.8 9.68)"/><path d="M978.87,529.56a3.69,3.69,0,0,1-3.76,4,3.6,3.6,0,0,1-3.62-3.89,3.7,3.7,0,0,1,3.75-4A3.58,3.58,0,0,1,978.87,529.56Zm-6,.08c0,1.65,1,2.9,2.29,2.9s2.3-1.24,2.3-2.93c0-1.28-.64-2.91-2.26-2.91S972.88,528.2,972.88,529.64Z" transform="translate(37.8 9.68)"/><path d="M980.6,528.2c0-.89,0-1.65-.06-2.35h1.2l0,1.48h.06a2.26,2.26,0,0,1,2.09-1.66,1.48,1.48,0,0,1,.39.05V527a2.12,2.12,0,0,0-.47,0,1.93,1.93,0,0,0-1.84,1.76,4.1,4.1,0,0,0-.06.64v4H980.6Z" transform="translate(37.8 9.68)"/><path d="M985.71,527.89c0-.78,0-1.42-.07-2h1.2l.07,1.21h0a2.62,2.62,0,0,1,2.37-1.39,2.24,2.24,0,0,1,2.14,1.52h0a3,3,0,0,1,.84-1,2.56,2.56,0,0,1,1.67-.54c1,0,2.48.66,2.48,3.28v4.44h-1.34v-4.27c0-1.45-.53-2.32-1.64-2.32a1.77,1.77,0,0,0-1.62,1.25,2.25,2.25,0,0,0-.11.68v4.66h-1.34v-4.52c0-1.2-.53-2.07-1.58-2.07a2,2,0,0,0-1.8,2v4.55h-1.34Z" transform="translate(37.8 9.68)"/><path d="M1002.89,533.39l-.1-.95h0a2.79,2.79,0,0,1-2.31,1.13,2.15,2.15,0,0,1-2.31-2.17c0-1.83,1.63-2.82,4.54-2.81v-.15a1.55,1.55,0,0,0-1.71-1.75,3.78,3.78,0,0,0-2,.56l-.31-.9a4.64,4.64,0,0,1,2.48-.68c2.31,0,2.87,1.58,2.87,3.09v2.83a10.93,10.93,0,0,0,.12,1.8Zm-.2-3.85c-1.49,0-3.19.24-3.19,1.7a1.21,1.21,0,0,0,1.29,1.31,1.86,1.86,0,0,0,1.82-1.26,1.36,1.36,0,0,0,.08-.44Z" transform="translate(37.8 9.68)"/><path d="M1007.89,523.68v2.17h2v1h-2V531c0,.94.26,1.47,1,1.47a2.81,2.81,0,0,0,.79-.1l.06,1a3.27,3.27,0,0,1-1.21.19,1.87,1.87,0,0,1-1.48-.58,2.77,2.77,0,0,1-.53-2v-4.12h-1.17v-1h1.17V524Z" transform="translate(37.8 9.68)"/><path d="M1011.07,532.58a.92.92,0,0,1,.94-1,1,1,0,0,1,0,2A.93.93,0,0,1,1011.07,532.58Z" transform="translate(37.8 9.68)"/></g></g><g class="cls-4"><g class="cls-69"><text class="cls-62" transform="translate(872.33 564.44)">Since we&apos;ve already gone through the learning curve togethe<tspan class="cls-70" x="397.15" y="0">r</tspan><tspan class="cls-71" x="400.99" y="0">, </tspan><tspan x="406.06" y="0">we keep in </tspan></text></g></g><g class="cls-4"><g class="cls-72"><text class="cls-62" transform="translate(872.33 585.8)">touch as your go-to contact for quick text reviews<tspan class="cls-73" x="321.04" y="0">. </tspan><tspan class="cls-63" x="325.46" y="0">W</tspan><tspan x="338.05" y="0">e&apos;ll be glad to quickly </tspan></text></g></g><g class="cls-4"><g class="cls-74"><text class="cls-62" transform="translate(872.33 607.16)">double-check an email or draft a short description.</text></g></g></g></g></g><text class="cls-29" transform="translate(619.04 286.24)"><tspan class="cls-75">W</tspan><tspan x="13.01" y="0">e d</tspan><tspan class="cls-32" x="33.44" y="0">r</tspan><tspan x="38.59" y="0">a</tspan><tspan class="cls-51" x="46.3" y="0">f</tspan><tspan x="51.15" y="0">t </tspan><tspan class="cls-33" x="59.84" y="0">t</tspan><tspan class="cls-76" x="65.04" y="0">e</tspan><tspan class="cls-43" x="73.01" y="0">x</tspan><tspan x="80.62" y="0">t and add a</tspan><tspan class="cls-77" x="155.18" y="0">n</tspan><tspan class="cls-78" x="163.85" y="0">y </tspan><tspan class="cls-38" x="174.78" y="0">r</tspan><tspan x="179.85" y="0">equi</tspan><tspan class="cls-38" x="209.43" y="0">r</tspan><tspan x="214.51" y="0">ed sc</tspan><tspan class="cls-38" x="248.44" y="0">r</tspan><tspan x="253.51" y="0">eenshot</tspan><tspan class="cls-36" x="307.72" y="0">s</tspan><tspan x="313.88" y="0">, dia</tspan><tspan class="cls-33" x="341.06" y="0">g</tspan><tspan class="cls-32" x="349.91" y="0">r</tspan><tspan x="355.06" y="0">am</tspan><tspan class="cls-36" x="376.12" y="0">s</tspan><tspan x="382.28" y="0">, </tspan><tspan x="0" y="22">tu</tspan><tspan class="cls-33" x="14.11" y="22">t</tspan><tspan x="19.31" y="22">o</tspan><tspan class="cls-79" x="28.1" y="22">r</tspan><tspan x="33.39" y="22">ials and video</tspan><tspan class="cls-36" x="124.62" y="22">s</tspan><tspan x="130.78" y="22">. </tspan><tspan class="cls-80" x="137.49" y="22"> </tspan><tspan class="cls-75" x="140.3" y="22">W</tspan><tspan x="153.31" y="22">e </tspan><tspan class="cls-38" x="164.72" y="22">r</tspan><tspan x="169.79" y="22">egula</tspan><tspan class="cls-81" x="207.05" y="22">r</tspan><tspan x="212.35" y="22">ly sumbit pa</tspan><tspan class="cls-57" x="293.9" y="22">r</tspan><tspan x="299.51" y="22">tial d</tspan><tspan class="cls-32" x="332.46" y="22">r</tspan><tspan x="337.61" y="22">a</tspan><tspan class="cls-51" x="345.32" y="22">f</tspan><tspan x="350.17" y="22">ts </tspan><tspan class="cls-53" x="365.19" y="22">f</tspan><tspan x="369.66" y="22">or </tspan><tspan x="0" y="44">SME </tspan><tspan class="cls-38" x="32.02" y="44">r</tspan><tspan x="37.09" y="44">eview and impleme</tspan><tspan class="cls-50" x="168.08" y="44">n</tspan><tspan x="176.89" y="44">t </tspan><tspan class="cls-53" x="185.58" y="44">f</tspan><tspan x="190.04" y="44">eedbac</tspan><tspan class="cls-82" x="239.08" y="44">k</tspan><tspan x="246.81" y="44">.</tspan></text><line class="cls-9" x1="1304.28" y1="388.06" x2="1116.01" y2="388.06"/><polyline class="cls-9" points="1307.35 379.11 1321.46 388.06 1305.35 397.01"/><text x="37.8" y="9.68"/><text x="37.8" y="9.68"/></svg>